HIERARCHY
ROOT pelvis
{
  OFFSET 0 100 0
  CHANNELS 6 Xposition Yposition Zposition Zrotation Xrotation Yrotation
  JOINT pelvis_right_femur
  {
    OFFSET -10.78128 -3.44521 -0.5502486
    CHANNELS 3 Zrotation Xrotation Yrotation
    JOINT right_femur_tibia
    {
      OFFSET -0.8047443 -44.0398 -0.1307829
      CHANNELS 3 Zrotation Xrotation Yrotation
      JOINT right_tibia_foot
      {
        OFFSET 3.006224 -47.83518 -5
        CHANNELS 3 Zrotation Xrotation Yrotation
        End Site
        {
          OFFSET 0 -5 15
        }
      }
    }
  }
  JOINT pelvis_left_femur
  {
    OFFSET 10.78128 -3.44521 -0.5502486
    CHANNELS 3 Zrotation Xrotation Yrotation
    JOINT left_femur_tibia
    {
      OFFSET 0.8047443 -44.0398 -0.1307829
      CHANNELS 3 Zrotation Xrotation Yrotation
      JOINT left_tibia_foot
      {
        OFFSET -4.370144 -48.10324 -4.275266
        CHANNELS 3 Zrotation Xrotation Yrotation
        End Site
        {
          OFFSET 0 -5 15
        }
      }
    }
  }
  JOINT pelvis_spine1
  {
    OFFSET 0 6.468898 -3.129235
    CHANNELS 3 Zrotation Xrotation Yrotation
    JOINT spine1
    {
      OFFSET 0 23.15396 4.99043
      CHANNELS 3 Zrotation Xrotation Yrotation
      JOINT spine2
      {
        OFFSET 0 20.79997 -5.064912
        CHANNELS 3 Zrotation Xrotation Yrotation
        JOINT neck
        {
          OFFSET 0 14.38658 9.616178
          CHANNELS 3 Zrotation Xrotation Yrotation
          End Site
          {
            OFFSET 0 20 0
          }
        }
      }
      JOINT right_manubrium
      {
        OFFSET -5.722621 16.35077 3.967754
        CHANNELS 3 Zrotation Xrotation Yrotation
        JOINT right_clavicle
        {
          OFFSET -13.16364 1.694482 -4.693211
          CHANNELS 3 Zrotation Xrotation Yrotation
          JOINT right_humerus
          {
            OFFSET -28.5034 -0.3100689 -2.792744
            CHANNELS 3 Zrotation Xrotation Yrotation
            JOINT right_radius
            {
              OFFSET -25.15693 0.02248979 -1.271978
              CHANNELS 3 Zrotation Xrotation Yrotation
              End Site
              {
                OFFSET -15 0 0
              }
            }
          }
        }
      }
      JOINT left_manubrium
      {
        OFFSET 5.722621 16.35077 3.967754
        CHANNELS 3 Zrotation Xrotation Yrotation
        JOINT left_clavicle
        {
          OFFSET 13.16364 1.694482 -4.693211
          CHANNELS 3 Zrotation Xrotation Yrotation
          JOINT left_humerus
          {
            OFFSET 29.39168 -1.063119 -2.237045
            CHANNELS 3 Zrotation Xrotation Yrotation
            JOINT left_radius
            {
              OFFSET 24.59957 -0.9528479 0.9047498
              CHANNELS 3 Zrotation Xrotation Yrotation
              End Site
              {
                OFFSET 15 -0 -0
              }
            }
          }
        }
      }
    }
  }
}
MOTION
Frames: 11
Frame Time: 0.0416666666667
590.3249 100.726 3008.751 2.071804 -6.295203 17.38051 4.815727 12.77211 2.980741 -0 12.38291 -0 -4.765704 -11.99568 -2.020116 1.004263 -20.11431 -4.068174 -0 32.83449 -0 -3.912192 -4.91147 18.06912 -0.8818188 -1.326655 7.912471 -0.0648214 12.94026 -5.331999 1.210182 20.11347 4.783652 2.002395 -19.44241 5.730647 1.9037 -23.60381 12.45561 83.98641 24.77334 -10.58152 -0 0 22.63743 -24.1146 13.40587 15.03499 3.526792 -19.12603 -4.290945 -91.83574 19.02068 26.80819 0 0 -14.22757 0.620205 7.224969 13.20786
592.8005 99.96972 3014.447 2.196164 -6.182133 16.82123 4.066953 15.38496 2.690999 -0 13.52002 -0 -4.100671 -12.41088 -1.4351 1.238512 -22.59646 -3.842295 -0 25.24681 -0 -3.378619 -5.69326 18.66636 -0.8974602 -1.270578 8.327628 -0.3224845 12.92115 -4.859601 1.25584 20.15053 4.615695 1.92382 -19.20016 5.619272 1.870928 -24.22145 12.47061 83.0985 24.50046 -8.917074 -0 0 24.20857 -24.61288 13.34017 15.6158 3.312821 -18.39996 -4.097788 -92.87177 19.00268 28.52185 0 0 -12.32366 -0.04160632 7.01609 13.98899
595.3962 99.06277 3020.216 2.462106 -6.362182 16.42624 3.28627 17.20368 2.558452 -0 16.39594 -0 -3.355748 -11.7857 -1.226426 1.154525 -23.78417 -3.723751 -0 20.40858 -0 -3.238053 -6.315676 18.9909 -0.9355414 -1.193766 8.621796 -0.5193737 12.84698 -4.489437 1.302622 20.20525 4.490424 1.866472 -18.96124 5.542108 1.86999 -24.60465 12.45707 82.3978 24.30391 -7.640829 -0 0 25.36068 -24.96312 13.2595 16.03164 3.152057 -17.79385 -3.930697 -93.63438 19.08219 29.70735 0 0 -10.87199 -0.6375893 6.792095 14.6934
598.092 98.29364 3026.108 2.877373 -6.846552 16.23557 2.450104 18.10388 2.646691 -0 21.48839 -0 -2.548361 -10.06184 -1.454887 0.6322116 -23.49867 -3.870247 -0 18.61068 -0 -3.478473 -6.773624 19.06483 -0.9937551 -1.096739 8.761146 -0.6391718 12.72117 -4.256522 1.349715 20.27774 4.416831 1.833387 -18.72868 5.505212 1.894578 -24.69956 12.4107 81.95064 24.1964 -6.880538 -0 0 25.96494 -25.14467 13.17302 16.24308 3.06157 -17.36392 -3.812001 -94.02325 19.28274 30.2143 0 0 -10.02956 -1.12723 6.561861 15.27178
600.8606 97.91613 3032.114 3.409632 -7.517201 16.28941 1.543878 17.9289 2.943781 -0 28.70447 -0 -1.697715 -7.443687 -2.073333 -0.3718946 -21.71607 -4.423268 -0 19.034 -0 -3.927764 -7.229866 18.97648 -1.065052 -0.9832437 8.740593 -0.6817026 12.55728 -4.168698 1.397042 20.3662 4.392793 1.822112 -18.50134 5.506766 1.93006 -24.50708 12.33249 81.78525 24.16169 -6.66889 -0 0 25.99452 -25.17303 13.08891 16.25038 3.04516 -17.1339 -3.756196 -94.0059 19.59386 30.01318 0 0 -9.837444 -1.489402 6.3362 15.69706
603.6685 98.07511 3038.159 3.98488 -8.169431 16.61109 0.6178929 16.46955 3.348626 -0 37.21629 -0 -0.8593213 -4.338266 -2.955802 -1.766727 -18.51926 -5.414159 -0 20.34929 -0 -4.34661 -7.915229 18.81243 -1.142505 -0.8599087 8.56802 -0.6505848 12.36928 -4.22304 1.442987 20.46648 4.415052 1.83036 -18.28699 5.543816 1.967628 -24.05236 12.2275 81.90526 24.1873 -6.994602 -0 0 25.47103 -25.06287 13.01219 16.06539 3.100916 -17.11037 -3.767747 -93.59148 19.98601 29.13665 0 0 -10.27888 -1.708539 6.131465 15.94944
606.4755 98.76516 3044.134 4.489259 -8.575113 17.18468 -0.1929966 13.53623 3.69697 -0 45.49832 -0 -0.1552279 -1.280071 -3.925216 -3.324816 -14.11192 -6.733309 -0 21.33989 -0 -4.522186 -9.006532 18.61597 -1.219454 -0.7371753 8.25453 -0.5469136 12.17178 -4.417618 1.483227 20.57059 4.483415 1.858049 -18.1068 5.614542 2.00613 -23.36875 12.10454 82.30815 24.27247 -7.841784 -0 0 24.42692 -24.81696 12.94752 15.69823 3.225989 -17.2997 -3.845733 -92.80569 20.41444 27.6386 0 0 -11.32761 -1.76195 5.97071 16.00186
609.2368 99.82824 3049.934 4.784469 -8.550627 17.94319 -0.713042 9.12161 3.829035 -0 51.62067 -0 0.2344608 1.153728 -4.773299 -4.74356 -8.90003 -8.171245 -0 21.26609 -0 -4.329304 -10.53448 18.39186 -1.288523 -0.6278828 7.822001 -0.3754992 11.98242 -4.742953 1.512405 20.66747 4.595692 1.904626 -17.98515 5.714783 2.046034 -22.5092 11.97575 82.97627 24.41132 -9.163014 -0 0 22.93198 -24.44526 12.89993 15.17135 3.412316 -17.69748 -3.984172 -91.70518 20.81845 25.62209 0 0 -12.91949 -1.632624 5.875023 15.83513
611.9105 101.0077 3055.501 4.764443 -8.040813 18.78962 -0.8238729 3.512289 3.675523 -0 54.02688 -0 0.1597637 2.55379 -5.334955 -5.77124 -3.439299 -9.5052 -0 20.07653 -0 -3.781764 -12.35806 18.11973 -1.34307 -0.54293 7.303269 -0.1481941 11.81822 -5.177271 1.526788 20.74696 4.744659 1.967349 -17.93707 5.837005 2.085513 -21.54188 11.85314 83.87224 24.58342 -10.8683 -0 0 21.09691 -23.97406 12.87303 14.52353 3.645491 -18.2802 -4.172592 -90.37728 21.13676 23.23727 0 0 -14.94278 -1.322622 5.853889 15.45321
614.4656 102.0379 3060.845 4.41635 -7.148049 19.63843 -0.5360587 -2.807222 3.264295 -0 52.24107 -0 -0.3837664 2.889036 -5.578939 -6.307202 1.792595 -10.55511 -0 18.24582 -0 -3.035098 -14.26011 17.74877 -1.379482 -0.4878474 6.729549 0.1211397 11.68944 -5.695209 1.525374 20.80342 4.921204 2.042553 -17.9648 5.973521 2.121522 -20.52525 11.7445 84.95344 24.76196 -12.85967 -0 0 19.03098 -23.43391 12.86735 13.79428 3.910417 -19.01519 -4.399686 -88.90927 21.32809 20.62641 0 0 -17.28027 -0.8493946 5.904034 14.87827
616.8917 102.7049 3066.047 3.818613 -6.061817 20.43561 0.02710667 -9.335342 2.635979 -0 46.74248 -0 -1.243572 2.464854 -5.595231 -6.388242 6.521713 -11.17232 -0 16.27775 -0 -2.317421 -16.07788 17.19577 -1.397803 -0.4625263 6.122798 0.4209191 11.59752 -6.27491 1.509443 20.8364 5.117461 2.12705 -18.06108 6.11886 2.152051 -19.49501 11.65244 86.18209 24.92322 -15.05639 -0 0 16.81497 -22.8486 12.8801 13.01271 4.195296 -19.87005 -4.65538 -87.3686 21.37683 17.89059 0 0 -19.83842 -0.237862 6.013604 14.14101
